{
	"patcher" : 	{
		"fileversion" : 1,
		"appversion" : 		{
			"major" : 8,
			"minor" : 2,
			"revision" : 2,
			"architecture" : "x64",
			"modernui" : 1
		}
,
		"classnamespace" : "box",
		"rect" : [ 34.0, 87.0, 997.0, 698.0 ],
		"bglocked" : 0,
		"openinpresentation" : 0,
		"default_fontsize" : 12.0,
		"default_fontface" : 0,
		"default_fontname" : "Arial",
		"gridonopen" : 1,
		"gridsize" : [ 15.0, 15.0 ],
		"gridsnaponopen" : 1,
		"objectsnaponopen" : 1,
		"statusbarvisible" : 2,
		"toolbarvisible" : 1,
		"lefttoolbarpinned" : 0,
		"toptoolbarpinned" : 0,
		"righttoolbarpinned" : 0,
		"bottomtoolbarpinned" : 0,
		"toolbars_unpinned_last_save" : 0,
		"tallnewobj" : 0,
		"boxanimatetime" : 200,
		"enablehscroll" : 1,
		"enablevscroll" : 1,
		"devicewidth" : 0.0,
		"description" : "",
		"digest" : "",
		"tags" : "",
		"style" : "",
		"subpatcher_template" : "",
		"assistshowspatchername" : 0,
		"boxes" : [ 			{
				"box" : 				{
					"id" : "obj-6",
					"linecount" : 3,
					"maxclass" : "comment",
					"numinlets" : 1,
					"numoutlets" : 0,
					"patching_rect" : [ 429.742692500352859, 224.410671472549438, 82.452834516763687, 47.0 ],
					"text" : "Outputs twice when A or B is updated"
				}

			}
, 			{
				"box" : 				{
					"id" : "obj-5",
					"linecount" : 3,
					"maxclass" : "comment",
					"numinlets" : 1,
					"numoutlets" : 0,
					"patching_rect" : [ 457.818180084228516, 281.914128012955189, 150.0, 47.0 ],
					"text" : "BUG: OUTPUTS TWICE EVERYTIME (NO PROBLEMS YET)"
				}

			}
, 			{
				"box" : 				{
					"id" : "obj-2",
					"maxclass" : "newobj",
					"numinlets" : 1,
					"numoutlets" : 1,
					"outlettype" : [ "" ],
					"patching_rect" : [ 39.992589068303801, 435.768147237598896, 54.0, 22.0 ],
					"text" : "deferlow"
				}

			}
, 			{
				"box" : 				{
					"id" : "obj-52",
					"linecount" : 10,
					"maxclass" : "comment",
					"numinlets" : 1,
					"numoutlets" : 0,
					"patching_rect" : [ 269.740402333745351, 522.147702820599079, 69.0, 141.0 ],
					"text" : "Logic gate:\n\nA<B and N<0 --> 1\nA<B and !N<0 --> 0\n!A<B and N<0 --> 1\n!A<B and !N<0 --> 0"
				}

			}
, 			{
				"box" : 				{
					"id" : "obj-38",
					"maxclass" : "newobj",
					"numinlets" : 2,
					"numoutlets" : 1,
					"outlettype" : [ "int" ],
					"patching_rect" : [ 186.780581643411324, 590.028888590633869, 29.5, 22.0 ],
					"text" : "!="
				}

			}
, 			{
				"box" : 				{
					"id" : "obj-37",
					"maxclass" : "toggle",
					"numinlets" : 1,
					"numoutlets" : 1,
					"outlettype" : [ "int" ],
					"parameter_enable" : 0,
					"patching_rect" : [ 186.766095713394861, 625.250220566987991, 24.0, 24.0 ]
				}

			}
, 			{
				"box" : 				{
					"id" : "obj-9",
					"maxclass" : "newobj",
					"numinlets" : 2,
					"numoutlets" : 1,
					"outlettype" : [ "int" ],
					"patching_rect" : [ 186.780581643411324, 554.771251566708088, 29.5, 22.0 ],
					"text" : "||"
				}

			}
, 			{
				"box" : 				{
					"id" : "obj-8",
					"maxclass" : "newobj",
					"numinlets" : 2,
					"numoutlets" : 1,
					"outlettype" : [ "int" ],
					"patching_rect" : [ 230.299498878726354, 554.771251566708088, 29.5, 22.0 ],
					"text" : "&&"
				}

			}
, 			{
				"box" : 				{
					"id" : "obj-7",
					"maxclass" : "message",
					"numinlets" : 2,
					"numoutlets" : 1,
					"outlettype" : [ "" ],
					"patching_rect" : [ 418.000423103570938, 922.787111580371857, 52.0, 22.0 ],
					"text" : "dim 3 1"
				}

			}
, 			{
				"box" : 				{
					"id" : "obj-4",
					"linecount" : 2,
					"maxclass" : "comment",
					"numinlets" : 1,
					"numoutlets" : 0,
					"patching_rect" : [ 318.000423103570938, 917.287111580371857, 99.0, 33.0 ],
					"text" : "return the matrix dimensions"
				}

			}
, 			{
				"box" : 				{
					"comment" : "",
					"id" : "obj-1",
					"index" : 0,
					"maxclass" : "outlet",
					"numinlets" : 1,
					"numoutlets" : 0,
					"patching_rect" : [ 286.000423103570938, 917.287111580371857, 30.0, 30.0 ]
				}

			}
, 			{
				"box" : 				{
					"id" : "obj-369",
					"linecount" : 2,
					"maxclass" : "comment",
					"numinlets" : 1,
					"numoutlets" : 0,
					"patching_rect" : [ 132.787555368261792, 809.405925810337067, 77.0, 33.0 ],
					"text" : "invert matrix dimension"
				}

			}
, 			{
				"box" : 				{
					"id" : "obj-367",
					"linecount" : 3,
					"maxclass" : "comment",
					"numinlets" : 1,
					"numoutlets" : 0,
					"patching_rect" : [ 269.740402333745351, 671.498804152011871, 71.278480589389801, 47.0 ],
					"text" : "type-convert and map matrices"
				}

			}
, 			{
				"box" : 				{
					"id" : "obj-365",
					"linecount" : 2,
					"maxclass" : "comment",
					"numinlets" : 1,
					"numoutlets" : 0,
					"patching_rect" : [ 199.000423103570938, 917.287111580371857, 85.0, 33.0 ],
					"text" : "return the correct matrix"
				}

			}
, 			{
				"box" : 				{
					"id" : "obj-363",
					"maxclass" : "comment",
					"numinlets" : 1,
					"numoutlets" : 0,
					"patching_rect" : [ 61.300450029759872, 406.196717388927937, 97.035454660654068, 20.0 ],
					"text" : "update mapping"
				}

			}
, 			{
				"box" : 				{
					"id" : "obj-359",
					"maxclass" : "comment",
					"numinlets" : 1,
					"numoutlets" : 0,
					"patching_rect" : [ 100.074900528478111, 278.654388137161732, 81.012659132480621, 20.0 ],
					"text" : "check if A > B"
				}

			}
, 			{
				"box" : 				{
					"id" : "obj-357",
					"maxclass" : "comment",
					"numinlets" : 1,
					"numoutlets" : 0,
					"patching_rect" : [ 249.772839601227815, 494.421612687408924, 91.418552696704865, 20.0 ],
					"text" : "check if N<0"
				}

			}
, 			{
				"box" : 				{
					"id" : "obj-353",
					"linecount" : 12,
					"maxclass" : "comment",
					"numinlets" : 1,
					"numoutlets" : 0,
					"patching_rect" : [ 353.164552330970764, 20.571796461939812, 291.139238655567169, 167.0 ],
					"presentation" : 1,
					"presentation_linecount" : 12,
					"presentation_rect" : [ 16.435789975860416, 135.401223845779896, 291.0, 167.0 ],
					"text" : "Returns a jit.matrix 1-dimensional sequence of numbers from A to B in N steps. \n\nNotes:\n\n1. A to B in 1 step will return nan except for A = B = 0 (TODO: look into alternatives as an option)\n2. if N is negative, the matrix's dimension will be reversed\n3. if A > B, the matrix's dimension will be reversed\n4. Behaviours described in bullet-points 2 and 3 can occur simultaneously and cumulatively. "
				}

			}
, 			{
				"box" : 				{
					"id" : "obj-345",
					"maxclass" : "number",
					"numinlets" : 1,
					"numoutlets" : 2,
					"outlettype" : [ "", "bang" ],
					"parameter_enable" : 0,
					"patching_rect" : [ 150.704422352645224, 42.571796461939812, 50.0, 22.0 ],
					"presentation" : 1,
					"presentation_rect" : [ 142.944810183119898, 43.005677342414856, 50.0, 22.0 ]
				}

			}
, 			{
				"box" : 				{
					"format" : 6,
					"id" : "obj-346",
					"maxclass" : "flonum",
					"numdecimalplaces" : 3,
					"numinlets" : 1,
					"numoutlets" : 2,
					"outlettype" : [ "", "bang" ],
					"parameter_enable" : 0,
					"patching_rect" : [ 91.265171944549138, 42.571796461939812, 50.0, 22.0 ],
					"presentation" : 1,
					"presentation_rect" : [ 83.505559775023812, 43.005677342414856, 50.0, 22.0 ]
				}

			}
, 			{
				"box" : 				{
					"format" : 6,
					"id" : "obj-347",
					"maxclass" : "flonum",
					"numdecimalplaces" : 3,
					"numinlets" : 1,
					"numoutlets" : 2,
					"outlettype" : [ "", "bang" ],
					"parameter_enable" : 0,
					"patching_rect" : [ 31.825921536453279, 42.571796461939812, 50.0, 22.0 ],
					"presentation" : 1,
					"presentation_rect" : [ 24.066309366927953, 43.005677342414856, 50.0, 22.0 ]
				}

			}
, 			{
				"box" : 				{
					"id" : "obj-348",
					"maxclass" : "comment",
					"numinlets" : 1,
					"numoutlets" : 0,
					"patching_rect" : [ 31.825921536453279, 20.571796461939812, 50.0, 20.0 ],
					"presentation" : 1,
					"presentation_rect" : [ 24.066309366927953, 21.005677342414856, 50.0, 20.0 ],
					"text" : "from A:"
				}

			}
, 			{
				"box" : 				{
					"id" : "obj-349",
					"maxclass" : "comment",
					"numinlets" : 1,
					"numoutlets" : 0,
					"patching_rect" : [ 91.265171944549138, 20.571796461939812, 50.0, 20.0 ],
					"presentation" : 1,
					"presentation_rect" : [ 83.505559775023812, 21.005677342414856, 50.0, 20.0 ],
					"text" : "to B:"
				}

			}
, 			{
				"box" : 				{
					"id" : "obj-350",
					"maxclass" : "comment",
					"numinlets" : 1,
					"numoutlets" : 0,
					"patching_rect" : [ 150.704422352645224, 20.571796461939812, 50.0, 20.0 ],
					"presentation" : 1,
					"presentation_rect" : [ 142.944810183119898, 21.005677342414856, 50.0, 20.0 ],
					"text" : "in N:"
				}

			}
, 			{
				"box" : 				{
					"angle" : 270.0,
					"grad1" : [ 0.241462022066116, 0.904991686344147, 0.486328959465027, 1.0 ],
					"grad2" : [ 0.219607843137255, 0.741176470588235, 0.580392156862745, 1.0 ],
					"id" : "obj-351",
					"maxclass" : "panel",
					"mode" : 1,
					"numinlets" : 1,
					"numoutlets" : 0,
					"patching_rect" : [ 24.195402145385742, 15.662039324641228, 182.7588374551583, 54.909757137298584 ],
					"presentation" : 1,
					"presentation_rect" : [ 16.435789975860416, 16.095920205116272, 182.7588374551583, 54.909757137298584 ],
					"proportion" : 0.5
				}

			}
, 			{
				"box" : 				{
					"id" : "obj-344",
					"maxclass" : "newobj",
					"numinlets" : 2,
					"numoutlets" : 1,
					"outlettype" : [ "float" ],
					"patching_rect" : [ 68.242589068303914, 162.473317682743073, 29.5, 22.0 ],
					"text" : "f"
				}

			}
, 			{
				"box" : 				{
					"id" : "obj-343",
					"maxclass" : "newobj",
					"numinlets" : 2,
					"numoutlets" : 1,
					"outlettype" : [ "float" ],
					"patching_rect" : [ 127.681839476399773, 162.473317682743073, 29.5, 22.0 ],
					"text" : "f"
				}

			}
, 			{
				"box" : 				{
					"id" : "obj-342",
					"maxclass" : "newobj",
					"numinlets" : 2,
					"numoutlets" : 1,
					"outlettype" : [ "int" ],
					"patching_rect" : [ 187.121089884495859, 162.473317682743073, 29.5, 22.0 ],
					"text" : "i"
				}

			}
, 			{
				"box" : 				{
					"id" : "obj-336",
					"maxclass" : "newobj",
					"numinlets" : 1,
					"numoutlets" : 3,
					"outlettype" : [ "float", "float", "int" ],
					"patching_rect" : [ 221.415074055006926, 86.192312698811293, 67.0, 22.0 ],
					"text" : "unpack f f i"
				}

			}
, 			{
				"box" : 				{
					"id" : "obj-337",
					"maxclass" : "newobj",
					"numinlets" : 1,
					"numoutlets" : 2,
					"outlettype" : [ "", "" ],
					"patching_rect" : [ 221.415074055006926, 53.68597075343132, 109.0, 22.0 ],
					"text" : "patcherargs 0. 0. 0"
				}

			}
, 			{
				"box" : 				{
					"id" : "obj-338",
					"maxclass" : "newobj",
					"numinlets" : 1,
					"numoutlets" : 1,
					"outlettype" : [ "bang" ],
					"patching_rect" : [ 221.415074055006926, 20.571796461939812, 58.0, 22.0 ],
					"text" : "loadbang"
				}

			}
, 			{
				"box" : 				{
					"comment" : "",
					"id" : "obj-339",
					"index" : 0,
					"maxclass" : "inlet",
					"numinlets" : 0,
					"numoutlets" : 1,
					"outlettype" : [ "" ],
					"patching_rect" : [ 31.825921536453279, 85.17629075050354, 30.0, 30.0 ]
				}

			}
, 			{
				"box" : 				{
					"comment" : "",
					"id" : "obj-340",
					"index" : 0,
					"maxclass" : "inlet",
					"numinlets" : 0,
					"numoutlets" : 1,
					"outlettype" : [ "" ],
					"patching_rect" : [ 150.704422352645224, 85.17629075050354, 30.0, 30.0 ]
				}

			}
, 			{
				"box" : 				{
					"comment" : "",
					"id" : "obj-341",
					"index" : 0,
					"maxclass" : "inlet",
					"numinlets" : 0,
					"numoutlets" : 1,
					"outlettype" : [ "" ],
					"patching_rect" : [ 91.265171944549138, 85.17629075050354, 30.0, 30.0 ]
				}

			}
, 			{
				"box" : 				{
					"id" : "obj-324",
					"maxclass" : "newobj",
					"numinlets" : 2,
					"numoutlets" : 1,
					"outlettype" : [ "float" ],
					"patching_rect" : [ 151.587559660958732, 320.687988109886646, 29.5, 22.0 ],
					"text" : "f"
				}

			}
, 			{
				"box" : 				{
					"id" : "obj-325",
					"maxclass" : "newobj",
					"numinlets" : 2,
					"numoutlets" : 1,
					"outlettype" : [ "float" ],
					"patching_rect" : [ 75.166567583054302, 320.687988109886646, 29.5, 22.0 ],
					"text" : "f"
				}

			}
, 			{
				"box" : 				{
					"id" : "obj-322",
					"maxclass" : "newobj",
					"numinlets" : 2,
					"numoutlets" : 1,
					"outlettype" : [ "float" ],
					"patching_rect" : [ 39.992589068303801, 320.687988109886646, 29.5, 22.0 ],
					"text" : "f"
				}

			}
, 			{
				"box" : 				{
					"id" : "obj-323",
					"maxclass" : "newobj",
					"numinlets" : 2,
					"numoutlets" : 1,
					"outlettype" : [ "float" ],
					"patching_rect" : [ 117.181839476399773, 320.687988109886646, 29.5, 22.0 ],
					"text" : "f"
				}

			}
, 			{
				"box" : 				{
					"id" : "obj-308",
					"maxclass" : "newobj",
					"numinlets" : 3,
					"numoutlets" : 3,
					"outlettype" : [ "bang", "bang", "" ],
					"patching_rect" : [ 39.992589068303801, 278.654388137161732, 44.0, 22.0 ],
					"text" : "sel 1 0"
				}

			}
, 			{
				"box" : 				{
					"id" : "obj-307",
					"maxclass" : "newobj",
					"numinlets" : 2,
					"numoutlets" : 1,
					"outlettype" : [ "int" ],
					"patching_rect" : [ 39.992589068303801, 241.654388137161732, 86.0, 22.0 ],
					"text" : "pdg_two-way<"
				}

			}
, 			{
				"box" : 				{
					"id" : "obj-304",
					"maxclass" : "newobj",
					"numinlets" : 1,
					"numoutlets" : 1,
					"outlettype" : [ "int" ],
					"patching_rect" : [ 68.71674326158336, 371.950999423861504, 28.0, 22.0 ],
					"text" : "abs"
				}

			}
, 			{
				"box" : 				{
					"id" : "obj-303",
					"maxclass" : "newobj",
					"numinlets" : 1,
					"numoutlets" : 1,
					"outlettype" : [ "int" ],
					"patching_rect" : [ 235.3832594084829, 661.147702820599079, 28.0, 22.0 ],
					"text" : "abs"
				}

			}
, 			{
				"box" : 				{
					"id" : "obj-300",
					"maxclass" : "newobj",
					"numinlets" : 1,
					"numoutlets" : 2,
					"outlettype" : [ "jit_matrix", "" ],
					"patching_rect" : [ 83.311172695474852, 809.405925810337067, 44.0, 22.0 ],
					"text" : "jit.map"
				}

			}
, 			{
				"box" : 				{
					"id" : "obj-301",
					"maxclass" : "newobj",
					"numinlets" : 2,
					"numoutlets" : 1,
					"outlettype" : [ "jit_matrix" ],
					"patching_rect" : [ 83.311172695474852, 775.772262334823608, 129.0, 22.0 ],
					"text" : "pdg_jit_type_convert 4"
				}

			}
, 			{
				"box" : 				{
					"id" : "obj-302",
					"maxclass" : "newobj",
					"numinlets" : 1,
					"numoutlets" : 2,
					"outlettype" : [ "jit_matrix", "" ],
					"patching_rect" : [ 83.311172695474852, 738.475235402584076, 123.0, 22.0 ],
					"text" : "pdg_jit_asc_int_list_1"
				}

			}
, 			{
				"box" : 				{
					"id" : "obj-299",
					"maxclass" : "newobj",
					"numinlets" : 2,
					"numoutlets" : 1,
					"outlettype" : [ "int" ],
					"patching_rect" : [ 199.000423103570938, 696.498804152011871, 29.5, 22.0 ],
					"text" : "i"
				}

			}
, 			{
				"box" : 				{
					"id" : "obj-298",
					"maxclass" : "newobj",
					"numinlets" : 2,
					"numoutlets" : 1,
					"outlettype" : [ "int" ],
					"patching_rect" : [ 235.3832594084829, 696.498804152011871, 29.5, 22.0 ],
					"text" : "i"
				}

			}
, 			{
				"box" : 				{
					"id" : "obj-293",
					"maxclass" : "newobj",
					"numinlets" : 3,
					"numoutlets" : 3,
					"outlettype" : [ "bang", "bang", "" ],
					"patching_rect" : [ 186.766095713394861, 661.147702820599079, 44.0, 22.0 ],
					"text" : "sel 0 1"
				}

			}
, 			{
				"box" : 				{
					"id" : "obj-292",
					"maxclass" : "newobj",
					"numinlets" : 2,
					"numoutlets" : 1,
					"outlettype" : [ "int" ],
					"patching_rect" : [ 213.397745338499362, 510.028888590633869, 29.5, 22.0 ],
					"text" : "< 0"
				}

			}
, 			{
				"box" : 				{
					"comment" : "",
					"id" : "obj-259",
					"index" : 0,
					"maxclass" : "outlet",
					"numinlets" : 1,
					"numoutlets" : 0,
					"patching_rect" : [ 167.250423103570711, 917.287111580371857, 30.0, 30.0 ]
				}

			}
, 			{
				"box" : 				{
					"id" : "obj-261",
					"maxclass" : "newobj",
					"numinlets" : 1,
					"numoutlets" : 1,
					"outlettype" : [ "bang" ],
					"patching_rect" : [ 39.992589068303801, 404.196717388927937, 22.0, 22.0 ],
					"text" : "t b"
				}

			}
, 			{
				"box" : 				{
					"id" : "obj-262",
					"maxclass" : "newobj",
					"numinlets" : 3,
					"numoutlets" : 1,
					"outlettype" : [ "" ],
					"patching_rect" : [ 99.681839476399773, 435.768147237598896, 47.0, 22.0 ],
					"text" : "pak i f f"
				}

			}
, 			{
				"box" : 				{
					"id" : "obj-263",
					"maxclass" : "message",
					"numinlets" : 2,
					"numoutlets" : 1,
					"outlettype" : [ "" ],
					"patching_rect" : [ 36.71674326158336, 470.421612687408924, 92.0, 22.0 ],
					"text" : "map 1 $1 $2 $3"
				}

			}
, 			{
				"box" : 				{
					"id" : "obj-264",
					"maxclass" : "newobj",
					"numinlets" : 1,
					"numoutlets" : 2,
					"outlettype" : [ "jit_matrix", "" ],
					"patching_rect" : [ 231.982115949580248, 844.702952742576599, 44.0, 22.0 ],
					"text" : "jit.map"
				}

			}
, 			{
				"box" : 				{
					"id" : "obj-265",
					"maxclass" : "newobj",
					"numinlets" : 2,
					"numoutlets" : 1,
					"outlettype" : [ "jit_matrix" ],
					"patching_rect" : [ 231.982115949580248, 809.405925810337067, 129.0, 22.0 ],
					"text" : "pdg_jit_type_convert 4"
				}

			}
, 			{
				"box" : 				{
					"id" : "obj-271",
					"maxclass" : "newobj",
					"numinlets" : 2,
					"numoutlets" : 1,
					"outlettype" : [ "int" ],
					"patching_rect" : [ 213.397745338499362, 470.421612687408924, 29.5, 22.0 ],
					"text" : "i"
				}

			}
, 			{
				"box" : 				{
					"id" : "obj-272",
					"maxclass" : "newobj",
					"numinlets" : 1,
					"numoutlets" : 2,
					"outlettype" : [ "jit_matrix", "" ],
					"patching_rect" : [ 231.982115949580248, 775.772262334823608, 123.0, 22.0 ],
					"text" : "pdg_jit_asc_int_list_1"
				}

			}
, 			{
				"box" : 				{
					"cols" : 3,
					"colwidth" : 40,
					"fontface" : 0,
					"fontname" : "Arial",
					"fontsize" : 12.0,
					"id" : "obj-282",
					"maxclass" : "jit.cellblock",
					"numinlets" : 2,
					"numoutlets" : 4,
					"outlettype" : [ "list", "", "", "" ],
					"patching_rect" : [ 23.102810126375402, 962.652006253600121, 424.267298201095628, 38.232198141515255 ],
					"presentation" : 1,
					"presentation_rect" : [ 16.435789975860416, 85.241094991564751, 424.267298201095628, 38.232198141515255 ],
					"prototypename" : "cellblock_row",
					"rowheight" : 20,
					"rows" : 1
				}

			}
, 			{
				"box" : 				{
					"id" : "obj-251",
					"maxclass" : "newobj",
					"numinlets" : 1,
					"numoutlets" : 2,
					"outlettype" : [ "jit_matrix", "" ],
					"patching_rect" : [ 83.311172695474852, 844.702952742576599, 118.0, 22.0 ],
					"text" : "jit.dimmap @invert 1"
				}

			}
, 			{
				"box" : 				{
					"angle" : 270.0,
					"grad1" : [ 0.241462022066116, 0.904991686344147, 0.486328959465027, 1.0 ],
					"grad2" : [ 0.219607843137255, 0.741176470588235, 0.580392156862745, 1.0 ],
					"id" : "obj-370",
					"maxclass" : "panel",
					"mode" : 1,
					"numinlets" : 1,
					"numoutlets" : 0,
					"patching_rect" : [ 31.825921536453279, 232.908729441463947, 156.417412105841549, 116.244627274572849 ],
					"proportion" : 0.5
				}

			}
, 			{
				"box" : 				{
					"angle" : 270.0,
					"grad1" : [ 0.241462022066116, 0.904991686344147, 0.486328959465027, 1.0 ],
					"grad2" : [ 0.219607843137255, 0.741176470588235, 0.580392156862745, 1.0 ],
					"id" : "obj-371",
					"maxclass" : "panel",
					"mode" : 1,
					"numinlets" : 1,
					"numoutlets" : 0,
					"patching_rect" : [ 77.161270585017292, 732.141307421028614, 140.535375659823785, 142.000666260719299 ],
					"proportion" : 0.5
				}

			}
, 			{
				"box" : 				{
					"angle" : 270.0,
					"grad1" : [ 0.241462022066116, 0.904991686344147, 0.486328959465027, 1.0 ],
					"grad2" : [ 0.219607843137255, 0.741176470588235, 0.580392156862745, 1.0 ],
					"id" : "obj-373",
					"maxclass" : "panel",
					"mode" : 1,
					"numinlets" : 1,
					"numoutlets" : 0,
					"patching_rect" : [ 225.668973557957997, 768.951047241687775, 139.6262847832445, 105.190926440060139 ],
					"proportion" : 0.5
				}

			}
, 			{
				"box" : 				{
					"angle" : 270.0,
					"grad1" : [ 0.241462022066116, 0.904991686344147, 0.486328959465027, 1.0 ],
					"grad2" : [ 0.219607843137255, 0.741176470588235, 0.580392156862745, 1.0 ],
					"id" : "obj-374",
					"maxclass" : "panel",
					"mode" : 1,
					"numinlets" : 1,
					"numoutlets" : 0,
					"patching_rect" : [ 180.292513025224025, 466.210138745605946, 164.042092163970892, 258.429237723350525 ],
					"proportion" : 0.5
				}

			}
, 			{
				"box" : 				{
					"angle" : 270.0,
					"grad1" : [ 0.241462022066116, 0.904991686344147, 0.486328959465027, 1.0 ],
					"grad2" : [ 0.219607843137255, 0.741176470588235, 0.580392156862745, 1.0 ],
					"id" : "obj-375",
					"maxclass" : "panel",
					"mode" : 1,
					"numinlets" : 1,
					"numoutlets" : 0,
					"patching_rect" : [ 31.825921536453279, 368.265979327261448, 126.509983153960661, 129.208459407091141 ],
					"proportion" : 0.5
				}

			}
 ],
		"lines" : [ 			{
				"patchline" : 				{
					"destination" : [ "obj-263", 0 ],
					"order" : 1,
					"source" : [ "obj-2", 0 ]
				}

			}
, 			{
				"patchline" : 				{
					"destination" : [ "obj-271", 0 ],
					"order" : 0,
					"source" : [ "obj-2", 0 ]
				}

			}
, 			{
				"patchline" : 				{
					"destination" : [ "obj-259", 0 ],
					"order" : 0,
					"source" : [ "obj-251", 0 ]
				}

			}
, 			{
				"patchline" : 				{
					"destination" : [ "obj-282", 0 ],
					"order" : 1,
					"source" : [ "obj-251", 0 ]
				}

			}
, 			{
				"patchline" : 				{
					"destination" : [ "obj-2", 0 ],
					"source" : [ "obj-261", 0 ]
				}

			}
, 			{
				"patchline" : 				{
					"destination" : [ "obj-263", 0 ],
					"source" : [ "obj-262", 0 ]
				}

			}
, 			{
				"patchline" : 				{
					"destination" : [ "obj-264", 0 ],
					"order" : 0,
					"source" : [ "obj-263", 0 ]
				}

			}
, 			{
				"patchline" : 				{
					"destination" : [ "obj-300", 0 ],
					"order" : 1,
					"source" : [ "obj-263", 0 ]
				}

			}
, 			{
				"patchline" : 				{
					"destination" : [ "obj-259", 0 ],
					"order" : 0,
					"source" : [ "obj-264", 0 ]
				}

			}
, 			{
				"patchline" : 				{
					"destination" : [ "obj-282", 0 ],
					"order" : 1,
					"source" : [ "obj-264", 0 ]
				}

			}
, 			{
				"patchline" : 				{
					"destination" : [ "obj-264", 0 ],
					"source" : [ "obj-265", 0 ]
				}

			}
, 			{
				"patchline" : 				{
					"destination" : [ "obj-292", 0 ],
					"order" : 2,
					"source" : [ "obj-271", 0 ]
				}

			}
, 			{
				"patchline" : 				{
					"destination" : [ "obj-298", 1 ],
					"midpoints" : [ 222.897745338499362, 495.0, 171.0, 495.0, 171.0, 693.0, 255.3832594084829, 693.0 ],
					"order" : 0,
					"source" : [ "obj-271", 0 ]
				}

			}
, 			{
				"patchline" : 				{
					"destination" : [ "obj-303", 0 ],
					"midpoints" : [ 222.897745338499362, 495.0, 198.0, 495.0, 198.0, 549.0, 225.0, 549.0, 225.0, 648.0, 244.8832594084829, 648.0 ],
					"order" : 1,
					"source" : [ "obj-271", 0 ]
				}

			}
, 			{
				"patchline" : 				{
					"destination" : [ "obj-1", 0 ],
					"order" : 1,
					"source" : [ "obj-272", 1 ]
				}

			}
, 			{
				"patchline" : 				{
					"destination" : [ "obj-265", 0 ],
					"source" : [ "obj-272", 0 ]
				}

			}
, 			{
				"patchline" : 				{
					"destination" : [ "obj-7", 1 ],
					"order" : 0,
					"source" : [ "obj-272", 1 ]
				}

			}
, 			{
				"patchline" : 				{
					"destination" : [ "obj-8", 0 ],
					"order" : 0,
					"source" : [ "obj-292", 0 ]
				}

			}
, 			{
				"patchline" : 				{
					"destination" : [ "obj-9", 0 ],
					"order" : 1,
					"source" : [ "obj-292", 0 ]
				}

			}
, 			{
				"patchline" : 				{
					"destination" : [ "obj-298", 0 ],
					"source" : [ "obj-293", 1 ]
				}

			}
, 			{
				"patchline" : 				{
					"destination" : [ "obj-299", 0 ],
					"source" : [ "obj-293", 0 ]
				}

			}
, 			{
				"patchline" : 				{
					"destination" : [ "obj-272", 0 ],
					"source" : [ "obj-298", 0 ]
				}

			}
, 			{
				"patchline" : 				{
					"destination" : [ "obj-302", 0 ],
					"source" : [ "obj-299", 0 ]
				}

			}
, 			{
				"patchline" : 				{
					"destination" : [ "obj-251", 0 ],
					"source" : [ "obj-300", 0 ]
				}

			}
, 			{
				"patchline" : 				{
					"destination" : [ "obj-300", 0 ],
					"source" : [ "obj-301", 0 ]
				}

			}
, 			{
				"patchline" : 				{
					"destination" : [ "obj-1", 0 ],
					"order" : 1,
					"source" : [ "obj-302", 1 ]
				}

			}
, 			{
				"patchline" : 				{
					"destination" : [ "obj-301", 0 ],
					"source" : [ "obj-302", 0 ]
				}

			}
, 			{
				"patchline" : 				{
					"destination" : [ "obj-7", 1 ],
					"order" : 0,
					"source" : [ "obj-302", 1 ]
				}

			}
, 			{
				"patchline" : 				{
					"destination" : [ "obj-299", 1 ],
					"source" : [ "obj-303", 0 ]
				}

			}
, 			{
				"patchline" : 				{
					"destination" : [ "obj-261", 0 ],
					"order" : 1,
					"source" : [ "obj-304", 0 ]
				}

			}
, 			{
				"patchline" : 				{
					"destination" : [ "obj-262", 0 ],
					"order" : 0,
					"source" : [ "obj-304", 0 ]
				}

			}
, 			{
				"patchline" : 				{
					"destination" : [ "obj-308", 0 ],
					"order" : 3,
					"source" : [ "obj-307", 0 ]
				}

			}
, 			{
				"patchline" : 				{
					"destination" : [ "obj-8", 1 ],
					"midpoints" : [ 49.492589068303801, 264.0, 24.0, 264.0, 24.0, 354.0, 250.597402095794678, 354.0, 250.597402095794678, 549.0, 250.299498878726354, 549.0 ],
					"order" : 0,
					"source" : [ "obj-307", 0 ]
				}

			}
, 			{
				"patchline" : 				{
					"destination" : [ "obj-9", 1 ],
					"midpoints" : [ 49.492589068303801, 264.0, 24.0, 264.0, 24.0, 354.0, 198.0, 354.0, 198.0, 546.0, 206.780581643411324, 546.0 ],
					"order" : 1,
					"source" : [ "obj-307", 0 ]
				}

			}
, 			{
				"patchline" : 				{
					"destination" : [ "obj-9", 0 ],
					"midpoints" : [ 49.492589068303801, 264.0, 24.0, 264.0, 24.0, 354.0, 196.280581643411324, 354.0 ],
					"order" : 2,
					"source" : [ "obj-307", 0 ]
				}

			}
, 			{
				"patchline" : 				{
					"destination" : [ "obj-261", 0 ],
					"order" : 2,
					"source" : [ "obj-308", 1 ]
				}

			}
, 			{
				"patchline" : 				{
					"destination" : [ "obj-261", 0 ],
					"order" : 1,
					"source" : [ "obj-308", 0 ]
				}

			}
, 			{
				"patchline" : 				{
					"destination" : [ "obj-322", 0 ],
					"order" : 2,
					"source" : [ "obj-308", 0 ]
				}

			}
, 			{
				"patchline" : 				{
					"destination" : [ "obj-323", 0 ],
					"order" : 0,
					"source" : [ "obj-308", 0 ]
				}

			}
, 			{
				"patchline" : 				{
					"destination" : [ "obj-324", 0 ],
					"order" : 0,
					"source" : [ "obj-308", 1 ]
				}

			}
, 			{
				"patchline" : 				{
					"destination" : [ "obj-325", 0 ],
					"order" : 1,
					"source" : [ "obj-308", 1 ]
				}

			}
, 			{
				"patchline" : 				{
					"destination" : [ "obj-262", 1 ],
					"source" : [ "obj-322", 0 ]
				}

			}
, 			{
				"patchline" : 				{
					"destination" : [ "obj-262", 2 ],
					"source" : [ "obj-323", 0 ]
				}

			}
, 			{
				"patchline" : 				{
					"destination" : [ "obj-262", 1 ],
					"source" : [ "obj-324", 0 ]
				}

			}
, 			{
				"patchline" : 				{
					"destination" : [ "obj-262", 2 ],
					"source" : [ "obj-325", 0 ]
				}

			}
, 			{
				"patchline" : 				{
					"destination" : [ "obj-342", 0 ],
					"source" : [ "obj-336", 2 ]
				}

			}
, 			{
				"patchline" : 				{
					"destination" : [ "obj-343", 0 ],
					"source" : [ "obj-336", 1 ]
				}

			}
, 			{
				"patchline" : 				{
					"destination" : [ "obj-344", 0 ],
					"source" : [ "obj-336", 0 ]
				}

			}
, 			{
				"patchline" : 				{
					"destination" : [ "obj-336", 0 ],
					"source" : [ "obj-337", 0 ]
				}

			}
, 			{
				"patchline" : 				{
					"destination" : [ "obj-337", 0 ],
					"source" : [ "obj-338", 0 ]
				}

			}
, 			{
				"patchline" : 				{
					"destination" : [ "obj-344", 0 ],
					"source" : [ "obj-339", 0 ]
				}

			}
, 			{
				"patchline" : 				{
					"destination" : [ "obj-342", 0 ],
					"source" : [ "obj-340", 0 ]
				}

			}
, 			{
				"patchline" : 				{
					"destination" : [ "obj-343", 0 ],
					"source" : [ "obj-341", 0 ]
				}

			}
, 			{
				"patchline" : 				{
					"destination" : [ "obj-271", 1 ],
					"order" : 0,
					"source" : [ "obj-342", 0 ]
				}

			}
, 			{
				"patchline" : 				{
					"destination" : [ "obj-304", 0 ],
					"order" : 1,
					"source" : [ "obj-342", 0 ]
				}

			}
, 			{
				"patchline" : 				{
					"destination" : [ "obj-307", 1 ],
					"order" : 2,
					"source" : [ "obj-343", 0 ]
				}

			}
, 			{
				"patchline" : 				{
					"destination" : [ "obj-323", 1 ],
					"order" : 1,
					"source" : [ "obj-343", 0 ]
				}

			}
, 			{
				"patchline" : 				{
					"destination" : [ "obj-324", 1 ],
					"order" : 0,
					"source" : [ "obj-343", 0 ]
				}

			}
, 			{
				"patchline" : 				{
					"destination" : [ "obj-307", 0 ],
					"order" : 2,
					"source" : [ "obj-344", 0 ]
				}

			}
, 			{
				"patchline" : 				{
					"destination" : [ "obj-322", 1 ],
					"order" : 1,
					"source" : [ "obj-344", 0 ]
				}

			}
, 			{
				"patchline" : 				{
					"destination" : [ "obj-325", 1 ],
					"order" : 0,
					"source" : [ "obj-344", 0 ]
				}

			}
, 			{
				"patchline" : 				{
					"destination" : [ "obj-342", 0 ],
					"source" : [ "obj-345", 0 ]
				}

			}
, 			{
				"patchline" : 				{
					"destination" : [ "obj-343", 0 ],
					"source" : [ "obj-346", 0 ]
				}

			}
, 			{
				"patchline" : 				{
					"destination" : [ "obj-344", 0 ],
					"source" : [ "obj-347", 0 ]
				}

			}
, 			{
				"patchline" : 				{
					"destination" : [ "obj-293", 0 ],
					"order" : 0,
					"source" : [ "obj-38", 0 ]
				}

			}
, 			{
				"patchline" : 				{
					"destination" : [ "obj-37", 0 ],
					"order" : 1,
					"source" : [ "obj-38", 0 ]
				}

			}
, 			{
				"patchline" : 				{
					"destination" : [ "obj-38", 0 ],
					"source" : [ "obj-8", 0 ]
				}

			}
, 			{
				"patchline" : 				{
					"destination" : [ "obj-38", 1 ],
					"source" : [ "obj-9", 0 ]
				}

			}
 ],
		"dependency_cache" : [ 			{
				"name" : "pdg_jit_asc_int_list_0.maxpat",
				"bootpath" : "~/Documents/Max 8/Library/jit matrix methods",
				"patcherrelativepath" : "..",
				"type" : "JSON",
				"implicit" : 1
			}
, 			{
				"name" : "pdg_jit_asc_int_list_1.maxpat",
				"bootpath" : "~/Documents/Max 8/Library/jit matrix methods",
				"patcherrelativepath" : "..",
				"type" : "JSON",
				"implicit" : 1
			}
, 			{
				"name" : "pdg_jit_asc_or_desc_int_list_0.maxpat",
				"bootpath" : "~/Documents/Max 8/Library/jit matrix methods",
				"patcherrelativepath" : "..",
				"type" : "JSON",
				"implicit" : 1
			}
, 			{
				"name" : "pdg_jit_type_convert.maxpat",
				"bootpath" : "~/Documents/Max 8/Library/jit matrix methods",
				"patcherrelativepath" : "..",
				"type" : "JSON",
				"implicit" : 1
			}
, 			{
				"name" : "pdg_two-way<.maxpat",
				"bootpath" : "~/Documents/Max 8/Library/two-way update arithmetic operators",
				"patcherrelativepath" : "../../two-way update arithmetic operators",
				"type" : "JSON",
				"implicit" : 1
			}
 ],
		"autosave" : 0,
		"styles" : [ 			{
				"name" : "jfc-style",
				"default" : 				{
					"bgcolor" : [ 0.901960784313726, 0.901960784313726, 0.901960784313726, 1.0 ],
					"bgfillcolor" : 					{
						"type" : "color",
						"color" : [ 0.737254901960784, 0.737254901960784, 0.737254901960784, 1.0 ],
						"color1" : [ 0.301961, 0.301961, 0.301961, 1.0 ],
						"color2" : [ 0.2, 0.2, 0.2, 1.0 ],
						"angle" : 270.0,
						"proportion" : 0.5,
						"autogradient" : 0.0
					}
,
					"color" : [ 0.317647058823529, 0.305882352941176, 0.996078431372549, 1.0 ],
					"editing_bgcolor" : [ 0.996078431372549, 0.996078431372549, 0.996078431372549, 1.0 ],
					"fontsize" : [ 11.0 ],
					"locked_bgcolor" : [ 0.996078431372549, 0.996078431372549, 0.996078431372549, 1.0 ],
					"selectioncolor" : [ 0.219607843137255, 0.996078431372549, 0.345098039215686, 1.0 ],
					"stripecolor" : [ 0.811764705882353, 0.811764705882353, 0.811764705882353, 1.0 ],
					"textcolor" : [ 0.0, 0.0, 0.0, 1.0 ],
					"textcolor_inverse" : [ 0.0, 0.0, 0.0, 1.0 ]
				}
,
				"parentstyle" : "",
				"multi" : 0
			}
 ]
	}

}
